#N canvas 622 221 450 300 10;
#X obj 158 373 dac~;
#X obj 144 329 *~;
#X obj 281 254 line~;
#X floatatom 31 22 3 0 300 0 dB metroVolume -, f 3;
#X obj 280 222 pack 0 50;
#X obj 281 288 *~;
#X obj 281 188 / 100;
#X obj 116 118 inlet~;
#X obj 149 210 +~;
#X obj 19 113 inlet~;
#X msg 317 147 0;
#X obj 31 41 bng 15 250 50 0 empty muteMetro mute -26 7 0 10 -262144
-1 -1;
#X connect 1 0 0 0;
#X connect 2 0 5 0;
#X connect 2 0 5 1;
#X connect 3 0 6 0;
#X connect 4 0 2 0;
#X connect 5 0 1 1;
#X connect 6 0 4 0;
#X connect 7 0 8 1;
#X connect 8 0 1 0;
#X connect 9 0 8 0;
#X connect 10 0 6 0;
#X connect 11 0 10 0;
#X coords 0 -1 1 1 85 60 1 0 0;
