#N canvas 62 49 712 452 10;
#N canvas 352 83 450 300 metronome 0;
#X floatatom 23 99 5 0 0 0 - - -, f 5;
#X obj 83 97 tgl 15 0 empty on empty 17 7 0 10 -262144 -1 -1 0 1;
#X obj 83 117 metro;
#X obj 83 161 vline~;
#X obj 83 183 *~;
#N canvas 0 22 450 300 output~ 0;
#X obj 158 373 dac~;
#X obj 144 329 *~;
#X obj 281 254 line~;
#X obj 280 222 pack 0 50;
#X obj 281 288 *~;
#X obj 281 188 / 100;
#X obj 19 113 inlet~;
#X obj 149 210 *~ 2;
#X obj 194 99 r volume;
#X obj 223 161 bng 15 250 50 0 empty empty empty 17 7 0 10 -262144
-1 -1;
#X connect 1 0 0 0;
#X connect 1 0 0 1;
#X connect 2 0 4 0;
#X connect 2 0 4 1;
#X connect 3 0 2 0;
#X connect 4 0 1 1;
#X connect 5 0 3 0;
#X connect 6 0 7 0;
#X connect 7 0 1 0;
#X connect 8 0 9 0;
#X connect 8 0 5 0;
#X connect 9 0 5 0;
#X restore 110 235 pd output~;
#X obj 34 42 expr (60/$f1)*1000;
#X floatatom 34 64 5 0 0 0 - - -, f 5;
#X obj 41 10 r bmp;
#X msg 82 140 1 10 \, 0 40 100;
#X obj 201 124 r pitch;
#X obj 152 170 osc~;
#X obj 200 146 mtof;
#X connect 0 0 2 1;
#X connect 1 0 2 0;
#X connect 2 0 9 0;
#X connect 3 0 4 0;
#X connect 4 0 5 0;
#X connect 6 0 7 0;
#X connect 7 0 0 0;
#X connect 8 0 6 0;
#X connect 9 0 3 0;
#X connect 10 0 12 0;
#X connect 11 0 4 1;
#X connect 12 0 11 0;
#X restore 39 80 pd metronome;
#X floatatom 133 5 5 0 0 0 bmp - bmp, f 5;
#X floatatom 73 4 5 0 0 0 metroVolume - volume, f 5;
#X obj 73 24 tgl 15 0 on empty MetroOn/off 17 7 0 10 -262144 -1 -1
0 1;
#X text 73 43 turn on the metro;
#N canvas 172 105 556 515 key1 0;
#X obj 31 52 nbx 5 14 -1e+37 1e+37 0 0 empty empty empty 0 -8 0 10
-262144 -1 -1 0 256;
#X obj 31 80 * 12;
#X obj 31 135 nbx 5 14 -1e+37 1e+37 0 0 empty empty empty 0 -8 0 10
-262144 -1 -1 0 256;
#X floatatom 113 75 3 0 0 0 - - -, f 3;
#X floatatom 301 230 5 0 0 0 volume vol -, f 5;
#X obj 214 240 / 100;
#X obj 152 276 pack 0 50;
#X obj 88 285 line~;
#X obj 53 330 *~;
#X obj 361 296 dac~;
#X obj 37 227 osc~;
#X floatatom 44 180 5 0 0 0 - - -, f 5;
#X obj 44 158 mtof;
#X obj 161 157 bng 15 250 50 0 empty empty empty 17 7 0 10 -262144
-1 -1;
#X obj 191 170 mod 2;
#X obj 182 142 f;
#X msg 210 110 0;
#X obj 212 76 loadbang;
#X obj 229 144 + 1;
#X floatatom 197 193 5 0 0 0 - - -, f 5;
#X obj 197 212 *;
#X obj 116 53 t b a;
#X obj 137 14 key;
#X obj 113 94 sel 97;
#X obj 180 48 keyname;
#X obj 163 79 t b a;
#X obj 115 129 bng 15 250 50 0 C empty empty 17 7 0 10 -262144 -1 -1
;
#X obj 142 133 bng 15 250 50 0 empty empty empty 17 7 0 10 -262144
-1 -1;
#X msg 104 163 s;
#X msg 128 161 s;
#X msg 104 185 1;
#X msg 142 186 0;
#X obj 31 110 + 0;
#X obj 126 228 *;
#X obj 31 23 inlet;
#X obj 413 101 delwrite~ vib 50;
#X floatatom 361 162 5 0 0 0 - - -, f 5;
#X obj 357 189 osc~ 2;
#X obj 362 219 *~ 1;
#X obj 361 256 vd~ vib;
#X floatatom 420 194 5 0 0 0 - - -, f 5;
#X obj 427 131 r vibfreq;
#X obj 457 167 r vibpitch;
#X connect 0 0 1 0;
#X connect 1 0 32 0;
#X connect 2 0 12 0;
#X connect 3 0 23 0;
#X connect 4 0 20 1;
#X connect 5 0 6 0;
#X connect 6 0 7 0;
#X connect 7 0 8 1;
#X connect 8 0 35 0;
#X connect 10 0 8 0;
#X connect 12 0 10 0;
#X connect 12 0 11 0;
#X connect 13 0 15 0;
#X connect 14 0 19 0;
#X connect 15 0 18 0;
#X connect 15 0 14 0;
#X connect 16 0 15 1;
#X connect 17 0 16 0;
#X connect 18 0 15 1;
#X connect 19 0 33 0;
#X connect 20 0 5 0;
#X connect 21 1 3 0;
#X connect 22 0 21 0;
#X connect 23 0 26 0;
#X connect 23 1 27 0;
#X connect 24 0 25 0;
#X connect 25 0 13 0;
#X connect 26 0 28 0;
#X connect 27 0 29 0;
#X connect 28 0 30 0;
#X connect 29 0 31 0;
#X connect 30 0 33 1;
#X connect 31 0 33 1;
#X connect 31 0 33 0;
#X connect 32 0 2 0;
#X connect 33 0 20 0;
#X connect 34 0 0 0;
#X connect 36 0 37 0;
#X connect 37 0 38 0;
#X connect 38 0 39 0;
#X connect 39 0 9 0;
#X connect 39 0 9 1;
#X connect 40 0 38 1;
#X connect 41 0 36 0;
#X connect 42 0 40 0;
#X coords 0 515 1 514 85 60 0;
#X restore 114 166 pd key1;
#X floatatom 451 65 5 0 0 0 key_volume - vol, f 5;
#N canvas 0 148 560 441 key2 0;
#X obj 31 52 nbx 5 14 -1e+37 1e+37 0 0 empty empty empty 0 -8 0 10
-262144 -1 -1 0 256;
#X obj 31 80 * 12;
#X obj 31 135 nbx 5 14 -1e+37 1e+37 0 0 empty empty empty 0 -8 0 10
-262144 -1 -1 0 256;
#X floatatom 113 75 3 0 0 0 - - -, f 3;
#X floatatom 301 230 5 0 0 0 volume vol -, f 5;
#X obj 214 240 / 100;
#X obj 152 276 pack 0 50;
#X obj 88 285 line~;
#X obj 53 330 *~;
#X obj 37 227 osc~;
#X floatatom 44 180 5 0 0 0 - - -, f 5;
#X obj 44 158 mtof;
#X obj 161 157 bng 15 250 50 0 empty empty empty 17 7 0 10 -262144
-1 -1;
#X obj 191 170 mod 2;
#X obj 182 142 f;
#X msg 210 110 0;
#X obj 212 76 loadbang;
#X obj 229 144 + 1;
#X floatatom 197 193 5 0 0 0 - - -, f 5;
#X obj 197 212 *;
#X obj 116 53 t b a;
#X obj 137 14 key;
#X obj 180 48 keyname;
#X obj 163 79 t b a;
#X obj 249 198 *;
#X obj 115 129 bng 15 250 50 0 C$ empty empty 17 7 0 10 -262144 -1
-1;
#X obj 142 133 bng 15 250 50 0 empty empty empty 17 7 0 10 -262144
-1 -1;
#X msg 104 163 s;
#X msg 128 161 s;
#X msg 104 185 1;
#X obj 31 110 + 1;
#X msg 238 173 0;
#X msg 140 175 0;
#X obj 113 94 sel 119;
#X obj 31 23 inlet;
#X obj 380 62 delwrite~ vib2 50;
#X obj 361 296 dac~;
#X floatatom 361 162 5 0 0 0 - - -, f 5;
#X obj 357 189 osc~ 2;
#X obj 362 219 *~ 1;
#X floatatom 420 194 5 0 0 0 - - -, f 5;
#X obj 427 131 r vibfreq;
#X obj 457 167 r vibpitch;
#X obj 361 256 vd~ vib2;
#X connect 0 0 1 0;
#X connect 1 0 30 0;
#X connect 2 0 11 0;
#X connect 3 0 33 0;
#X connect 4 0 19 1;
#X connect 5 0 6 0;
#X connect 6 0 7 0;
#X connect 7 0 8 1;
#X connect 8 0 35 0;
#X connect 9 0 8 0;
#X connect 11 0 9 0;
#X connect 11 0 10 0;
#X connect 12 0 14 0;
#X connect 13 0 18 0;
#X connect 14 0 17 0;
#X connect 14 0 13 0;
#X connect 15 0 14 1;
#X connect 16 0 15 0;
#X connect 17 0 14 1;
#X connect 18 0 24 0;
#X connect 19 0 5 0;
#X connect 20 1 3 0;
#X connect 21 0 20 0;
#X connect 22 0 23 0;
#X connect 23 0 12 0;
#X connect 24 0 19 0;
#X connect 25 0 27 0;
#X connect 26 0 28 0;
#X connect 27 0 29 0;
#X connect 28 0 32 0;
#X connect 29 0 24 1;
#X connect 30 0 2 0;
#X connect 31 0 18 0;
#X connect 32 0 24 1;
#X connect 32 0 31 0;
#X connect 33 0 25 0;
#X connect 33 1 26 0;
#X connect 34 0 0 0;
#X connect 37 0 38 0;
#X connect 38 0 39 0;
#X connect 39 0 43 0;
#X connect 40 0 39 1;
#X connect 41 0 37 0;
#X connect 42 0 40 0;
#X connect 43 0 36 0;
#X connect 43 0 36 1;
#X restore 114 144 pd key2;
#N canvas 708 106 452 397 key3 0;
#X obj 38 42 nbx 5 14 -1e+37 1e+37 0 0 empty empty empty 0 -8 0 10
-262144 -1 -1 0 256;
#X obj 38 70 * 12;
#X obj 38 125 nbx 5 14 -1e+37 1e+37 0 0 empty empty empty 0 -8 0 10
-262144 -1 -1 0 256;
#X floatatom 120 65 3 0 0 0 - - -, f 3;
#X floatatom 308 220 5 0 0 0 volume vol -, f 5;
#X obj 221 230 / 100;
#X obj 159 266 pack 0 50;
#X obj 95 275 line~;
#X obj 60 320 *~;
#X obj 44 217 osc~;
#X floatatom 51 170 5 0 0 0 - - -, f 5;
#X obj 51 148 mtof;
#X obj 168 147 bng 15 250 50 0 empty empty empty 17 7 0 10 -262144
-1 -1;
#X obj 198 160 mod 2;
#X obj 189 132 f;
#X msg 217 100 0;
#X obj 219 66 loadbang;
#X obj 236 134 + 1;
#X floatatom 204 183 5 0 0 0 - - -, f 5;
#X obj 204 202 *;
#X obj 123 43 t b a;
#X obj 144 4 key;
#X obj 187 38 keyname;
#X obj 170 69 t b a;
#X obj 256 188 *;
#X obj 122 119 bng 15 250 50 0 D empty empty 17 7 0 10 -262144 -1 -1
;
#X obj 149 123 bng 15 250 50 0 empty empty empty 17 7 0 10 -262144
-1 -1;
#X msg 111 153 s;
#X msg 135 151 s;
#X msg 111 175 1;
#X msg 245 163 0;
#X msg 147 165 0;
#X obj 38 13 inlet;
#X obj 38 100 + 2;
#X obj 120 84 sel 115;
#X obj 323 40 delwrite~ vib3 50;
#X obj 361 296 dac~;
#X floatatom 361 162 5 0 0 0 - - -, f 5;
#X obj 357 189 osc~ 2;
#X obj 362 219 *~ 1;
#X floatatom 420 194 5 0 0 0 - - -, f 5;
#X obj 427 131 r vibfreq;
#X obj 457 167 r vibpitch;
#X obj 361 256 vd~ vib3;
#X connect 0 0 1 0;
#X connect 1 0 33 0;
#X connect 2 0 11 0;
#X connect 3 0 34 0;
#X connect 4 0 19 1;
#X connect 5 0 6 0;
#X connect 6 0 7 0;
#X connect 7 0 8 1;
#X connect 8 0 35 0;
#X connect 9 0 8 0;
#X connect 11 0 9 0;
#X connect 11 0 10 0;
#X connect 12 0 14 0;
#X connect 13 0 18 0;
#X connect 14 0 17 0;
#X connect 14 0 13 0;
#X connect 15 0 14 1;
#X connect 16 0 15 0;
#X connect 17 0 14 1;
#X connect 18 0 24 0;
#X connect 19 0 5 0;
#X connect 20 1 3 0;
#X connect 21 0 20 0;
#X connect 22 0 23 0;
#X connect 23 0 12 0;
#X connect 24 0 19 0;
#X connect 25 0 27 0;
#X connect 26 0 28 0;
#X connect 27 0 29 0;
#X connect 28 0 31 0;
#X connect 29 0 24 1;
#X connect 30 0 18 0;
#X connect 31 0 24 1;
#X connect 31 0 30 0;
#X connect 32 0 0 0;
#X connect 33 0 2 0;
#X connect 34 0 25 0;
#X connect 34 1 26 0;
#X connect 37 0 38 0;
#X connect 38 0 39 0;
#X connect 39 0 43 0;
#X connect 40 0 39 1;
#X connect 41 0 37 0;
#X connect 42 0 40 0;
#X connect 43 0 36 0;
#X connect 43 0 36 1;
#X restore 114 188 pd key3;
#N canvas 0 22 555 470 key4 0;
#X obj 31 52 nbx 5 14 -1e+37 1e+37 0 0 empty empty empty 0 -8 0 10
-262144 -1 -1 0 256;
#X obj 31 80 * 12;
#X obj 31 135 nbx 5 14 -1e+37 1e+37 0 0 empty empty empty 0 -8 0 10
-262144 -1 -1 0 256;
#X floatatom 113 75 3 0 0 0 - - -, f 3;
#X floatatom 301 230 5 0 0 0 volume vol -, f 5;
#X obj 214 240 / 100;
#X obj 152 276 pack 0 50;
#X obj 88 285 line~;
#X obj 53 330 *~;
#X obj 37 227 osc~;
#X floatatom 44 180 5 0 0 0 - - -, f 5;
#X obj 44 158 mtof;
#X obj 161 157 bng 15 250 50 0 empty empty empty 17 7 0 10 -262144
-1 -1;
#X obj 191 170 mod 2;
#X obj 182 142 f;
#X msg 210 110 0;
#X obj 212 76 loadbang;
#X obj 229 144 + 1;
#X floatatom 197 193 5 0 0 0 - - -, f 5;
#X obj 197 212 *;
#X obj 116 53 t b a;
#X obj 137 14 key;
#X obj 180 48 keyname;
#X obj 163 79 t b a;
#X obj 249 198 *;
#X obj 115 129 bng 15 250 50 0 D$ empty empty 17 7 0 10 -262144 -1
-1;
#X obj 142 133 bng 15 250 50 0 empty empty empty 17 7 0 10 -262144
-1 -1;
#X msg 104 163 s;
#X msg 128 161 s;
#X msg 104 185 1;
#X msg 238 173 0;
#X msg 140 175 0;
#X obj 31 110 + 3;
#X obj 113 94 sel 101;
#X obj 31 23 inlet;
#X obj 399 53 delwrite~ vib4 50;
#X obj 361 297 dac~;
#X floatatom 361 163 5 0 0 0 - - -, f 5;
#X obj 357 190 osc~ 2;
#X obj 362 220 *~ 1;
#X floatatom 420 195 5 0 0 0 - - -, f 5;
#X obj 427 132 r vibfreq;
#X obj 457 168 r vibpitch;
#X obj 361 257 vd~ vib4;
#X connect 0 0 1 0;
#X connect 1 0 32 0;
#X connect 2 0 11 0;
#X connect 3 0 33 0;
#X connect 4 0 19 1;
#X connect 5 0 6 0;
#X connect 6 0 7 0;
#X connect 7 0 8 1;
#X connect 8 0 35 0;
#X connect 9 0 8 0;
#X connect 11 0 9 0;
#X connect 11 0 10 0;
#X connect 12 0 14 0;
#X connect 13 0 18 0;
#X connect 14 0 17 0;
#X connect 14 0 13 0;
#X connect 15 0 14 1;
#X connect 16 0 15 0;
#X connect 17 0 14 1;
#X connect 18 0 24 0;
#X connect 19 0 5 0;
#X connect 20 1 3 0;
#X connect 21 0 20 0;
#X connect 22 0 23 0;
#X connect 23 0 12 0;
#X connect 24 0 19 0;
#X connect 25 0 27 0;
#X connect 26 0 28 0;
#X connect 27 0 29 0;
#X connect 28 0 31 0;
#X connect 29 0 24 1;
#X connect 30 0 18 0;
#X connect 31 0 24 1;
#X connect 31 0 30 0;
#X connect 32 0 2 0;
#X connect 33 0 25 0;
#X connect 33 1 26 0;
#X connect 34 0 0 0;
#X connect 37 0 38 0;
#X connect 38 0 39 0;
#X connect 39 0 43 0;
#X connect 40 0 39 1;
#X connect 41 0 37 0;
#X connect 42 0 40 0;
#X connect 43 0 36 0;
#X connect 43 0 36 1;
#X restore 114 210 pd key4;
#N canvas 495 232 606 441 key5 0;
#X obj 31 52 nbx 5 14 -1e+37 1e+37 0 0 empty empty empty 0 -8 0 10
-262144 -1 -1 0 256;
#X obj 31 80 * 12;
#X obj 31 135 nbx 5 14 -1e+37 1e+37 0 0 empty empty empty 0 -8 0 10
-262144 -1 -1 0 256;
#X floatatom 113 75 3 0 0 0 - - -, f 3;
#X floatatom 301 225 5 0 0 0 volume vol -, f 5;
#X obj 214 240 / 100;
#X obj 152 276 pack 0 50;
#X obj 88 285 line~;
#X obj 53 330 *~;
#X obj 37 227 osc~;
#X floatatom 44 180 5 0 0 0 - - -, f 5;
#X obj 44 158 mtof;
#X obj 161 157 bng 15 250 50 0 empty empty empty 17 7 0 10 -262144
-1 -1;
#X obj 191 170 mod 2;
#X obj 182 142 f;
#X msg 210 110 0;
#X obj 212 76 loadbang;
#X obj 229 144 + 1;
#X floatatom 197 193 5 0 0 0 - - -, f 5;
#X obj 197 212 *;
#X obj 116 53 t b a;
#X obj 137 14 key;
#X obj 180 48 keyname;
#X obj 163 79 t b a;
#X obj 249 198 *;
#X obj 115 129 bng 15 250 50 0 E empty empty 17 7 0 10 -262144 -1 -1
;
#X obj 142 133 bng 15 250 50 0 empty empty empty 17 7 0 10 -262144
-1 -1;
#X msg 104 163 s;
#X msg 128 161 s;
#X msg 104 185 1;
#X msg 238 173 0;
#X msg 140 175 0;
#X obj 31 110 + 4;
#X obj 113 94 sel 100;
#X obj 31 24 inlet;
#X obj 411 67 delwrite~ vib5 50;
#X obj 361 296 dac~;
#X floatatom 361 162 5 0 0 0 - - -, f 5;
#X obj 357 189 osc~ 2;
#X obj 362 219 *~ 1;
#X floatatom 420 194 5 0 0 0 - - -, f 5;
#X obj 427 131 r vibfreq;
#X obj 457 167 r vibpitch;
#X obj 361 256 vd~ vib5;
#X connect 0 0 1 0;
#X connect 1 0 32 0;
#X connect 2 0 11 0;
#X connect 3 0 33 0;
#X connect 4 0 19 1;
#X connect 5 0 6 0;
#X connect 6 0 7 0;
#X connect 7 0 8 1;
#X connect 8 0 35 0;
#X connect 9 0 8 0;
#X connect 11 0 9 0;
#X connect 11 0 10 0;
#X connect 12 0 14 0;
#X connect 13 0 18 0;
#X connect 14 0 17 0;
#X connect 14 0 13 0;
#X connect 15 0 14 1;
#X connect 16 0 15 0;
#X connect 17 0 14 1;
#X connect 18 0 24 0;
#X connect 19 0 5 0;
#X connect 20 1 3 0;
#X connect 21 0 20 0;
#X connect 22 0 23 0;
#X connect 23 0 12 0;
#X connect 24 0 19 0;
#X connect 25 0 27 0;
#X connect 26 0 28 0;
#X connect 27 0 29 0;
#X connect 28 0 31 0;
#X connect 29 0 24 1;
#X connect 30 0 18 0;
#X connect 31 0 24 1;
#X connect 31 0 30 0;
#X connect 32 0 2 0;
#X connect 33 0 25 0;
#X connect 33 1 26 0;
#X connect 34 0 0 0;
#X connect 37 0 38 0;
#X connect 38 0 39 0;
#X connect 39 0 43 0;
#X connect 40 0 39 1;
#X connect 41 0 37 0;
#X connect 42 0 40 0;
#X connect 43 0 36 0;
#X connect 43 0 36 1;
#X restore 114 232 pd key5;
#N canvas 0 23 612 420 key6 0;
#X obj 31 52 nbx 5 14 -1e+37 1e+37 0 0 empty empty empty 0 -8 0 10
-262144 -1 -1 0 256;
#X obj 31 80 * 12;
#X obj 31 135 nbx 5 14 -1e+37 1e+37 0 0 empty empty empty 0 -8 0 10
-262144 -1 -1 0 256;
#X floatatom 113 75 3 0 0 0 - - -, f 3;
#X floatatom 301 230 5 0 0 0 volume vol -, f 5;
#X obj 214 240 / 100;
#X obj 152 276 pack 0 50;
#X obj 88 285 line~;
#X obj 53 330 *~;
#X obj 37 227 osc~;
#X floatatom 44 180 5 0 0 0 - - -, f 5;
#X obj 44 158 mtof;
#X obj 161 157 bng 15 250 50 0 empty empty empty 17 7 0 10 -262144
-1 -1;
#X obj 191 170 mod 2;
#X obj 182 142 f;
#X msg 210 110 0;
#X obj 212 76 loadbang;
#X obj 229 144 + 1;
#X floatatom 197 193 5 0 0 0 - - -, f 5;
#X obj 197 212 *;
#X obj 116 53 t b a;
#X obj 137 14 key;
#X obj 180 48 keyname;
#X obj 163 79 t b a;
#X obj 249 198 *;
#X obj 115 129 bng 15 250 50 0 F empty empty 17 7 0 10 -262144 -1 -1
;
#X obj 142 133 bng 15 250 50 0 empty empty empty 17 7 0 10 -262144
-1 -1;
#X msg 104 163 s;
#X msg 128 161 s;
#X msg 104 185 1;
#X msg 238 173 0;
#X msg 140 175 0;
#X obj 31 110 + 5;
#X obj 113 94 sel 102;
#X obj 31 23 inlet;
#X obj 399 88 delwrite~ vib6 50;
#X obj 361 296 dac~;
#X floatatom 361 162 5 0 0 0 - - -, f 5;
#X obj 357 189 osc~ 2;
#X obj 362 219 *~ 1;
#X floatatom 420 194 5 0 0 0 - - -, f 5;
#X obj 427 131 r vibfreq;
#X obj 457 167 r vibpitch;
#X obj 361 256 vd~ vib6;
#X connect 0 0 1 0;
#X connect 1 0 32 0;
#X connect 2 0 11 0;
#X connect 3 0 33 0;
#X connect 4 0 19 1;
#X connect 5 0 6 0;
#X connect 6 0 7 0;
#X connect 7 0 8 1;
#X connect 8 0 35 0;
#X connect 9 0 8 0;
#X connect 11 0 9 0;
#X connect 11 0 10 0;
#X connect 12 0 14 0;
#X connect 13 0 18 0;
#X connect 14 0 17 0;
#X connect 14 0 13 0;
#X connect 15 0 14 1;
#X connect 16 0 15 0;
#X connect 17 0 14 1;
#X connect 18 0 24 0;
#X connect 19 0 5 0;
#X connect 20 1 3 0;
#X connect 21 0 20 0;
#X connect 22 0 23 0;
#X connect 23 0 12 0;
#X connect 24 0 19 0;
#X connect 25 0 27 0;
#X connect 26 0 28 0;
#X connect 27 0 29 0;
#X connect 28 0 31 0;
#X connect 29 0 24 1;
#X connect 30 0 18 0;
#X connect 31 0 24 1;
#X connect 31 0 30 0;
#X connect 32 0 2 0;
#X connect 33 0 25 0;
#X connect 33 1 26 0;
#X connect 34 0 0 0;
#X connect 37 0 38 0;
#X connect 38 0 39 0;
#X connect 39 0 43 0;
#X connect 40 0 39 1;
#X connect 41 0 37 0;
#X connect 42 0 40 0;
#X connect 43 0 36 0;
#X connect 43 0 36 1;
#X restore 114 254 pd key6;
#N canvas 0 22 551 361 key8 0;
#X obj 31 52 nbx 5 14 -1e+37 1e+37 0 0 empty empty empty 0 -8 0 10
-262144 -1 -1 0 256;
#X obj 31 80 * 12;
#X obj 31 135 nbx 5 14 -1e+37 1e+37 0 0 empty empty empty 0 -8 0 10
-262144 -1 -1 0 256;
#X floatatom 113 75 3 0 0 0 - - -, f 3;
#X floatatom 301 230 5 0 0 0 volume vol -, f 5;
#X obj 214 240 / 100;
#X obj 152 276 pack 0 50;
#X obj 88 285 line~;
#X obj 53 330 *~;
#X obj 37 227 osc~;
#X floatatom 44 180 5 0 0 0 - - -, f 5;
#X obj 44 158 mtof;
#X obj 161 157 bng 15 250 50 0 empty empty empty 17 7 0 10 -262144
-1 -1;
#X obj 191 170 mod 2;
#X obj 182 142 f;
#X msg 210 110 0;
#X obj 212 76 loadbang;
#X obj 229 144 + 1;
#X floatatom 197 193 5 0 0 0 - - -, f 5;
#X obj 197 212 *;
#X obj 116 53 t b a;
#X obj 137 14 key;
#X obj 180 48 keyname;
#X obj 163 79 t b a;
#X obj 249 198 *;
#X obj 115 129 bng 15 250 50 0 G empty empty 17 7 0 10 -262144 -1 -1
;
#X obj 142 133 bng 15 250 50 0 empty empty empty 17 7 0 10 -262144
-1 -1;
#X msg 104 163 s;
#X msg 128 161 s;
#X msg 104 185 1;
#X msg 238 173 0;
#X msg 140 175 0;
#X obj 31 109 + 7;
#X obj 113 94 sel 103;
#X obj 31 23 inlet;
#X obj 413 101 delwrite~ vib8 50;
#X obj 361 296 dac~;
#X floatatom 361 162 5 0 0 0 - - -, f 5;
#X obj 357 189 osc~ 2;
#X obj 362 219 *~ 1;
#X floatatom 420 194 5 0 0 0 - - -, f 5;
#X obj 427 131 r vibfreq;
#X obj 457 167 r vibpitch;
#X obj 361 256 vd~ vib8;
#X connect 0 0 1 0;
#X connect 1 0 32 0;
#X connect 2 0 11 0;
#X connect 3 0 33 0;
#X connect 4 0 19 1;
#X connect 5 0 6 0;
#X connect 6 0 7 0;
#X connect 7 0 8 1;
#X connect 8 0 35 0;
#X connect 9 0 8 0;
#X connect 11 0 9 0;
#X connect 11 0 10 0;
#X connect 12 0 14 0;
#X connect 13 0 18 0;
#X connect 14 0 17 0;
#X connect 14 0 13 0;
#X connect 15 0 14 1;
#X connect 16 0 15 0;
#X connect 17 0 14 1;
#X connect 18 0 24 0;
#X connect 19 0 5 0;
#X connect 20 1 3 0;
#X connect 21 0 20 0;
#X connect 22 0 23 0;
#X connect 23 0 12 0;
#X connect 24 0 19 0;
#X connect 25 0 27 0;
#X connect 26 0 28 0;
#X connect 27 0 29 0;
#X connect 28 0 31 0;
#X connect 29 0 24 1;
#X connect 30 0 18 0;
#X connect 31 0 24 1;
#X connect 31 0 30 0;
#X connect 32 0 2 0;
#X connect 33 0 25 0;
#X connect 33 1 26 0;
#X connect 34 0 0 0;
#X connect 37 0 38 0;
#X connect 38 0 39 0;
#X connect 39 0 43 0;
#X connect 40 0 39 1;
#X connect 41 0 37 0;
#X connect 42 0 40 0;
#X connect 43 0 36 0;
#X connect 43 0 36 1;
#X restore 114 276 pd key8;
#N canvas 365 151 615 358 key9 0;
#X obj 31 52 nbx 5 14 -1e+37 1e+37 0 0 empty empty empty 0 -8 0 10
-262144 -1 -1 0 256;
#X obj 31 80 * 12;
#X obj 31 135 nbx 5 14 -1e+37 1e+37 0 0 empty empty empty 0 -8 0 10
-262144 -1 -1 0 256;
#X floatatom 113 75 3 0 0 0 - - -, f 3;
#X floatatom 301 230 5 0 0 0 volume vol -, f 5;
#X obj 214 240 / 100;
#X obj 152 276 pack 0 50;
#X obj 88 285 line~;
#X obj 53 330 *~;
#X obj 37 227 osc~;
#X floatatom 44 180 5 0 0 0 - - -, f 5;
#X obj 44 158 mtof;
#X obj 161 157 bng 15 250 50 0 empty empty empty 17 7 0 10 -262144
-1 -1;
#X obj 191 170 mod 2;
#X obj 182 142 f;
#X msg 210 110 0;
#X obj 212 76 loadbang;
#X obj 229 144 + 1;
#X floatatom 197 193 5 0 0 0 - - -, f 5;
#X obj 197 212 *;
#X obj 116 53 t b a;
#X obj 137 14 key;
#X obj 180 48 keyname;
#X obj 163 79 t b a;
#X obj 249 198 *;
#X obj 115 129 bng 15 250 50 0 G$ empty empty 17 7 0 10 -262144 -1
-1;
#X obj 142 133 bng 15 250 50 0 empty empty empty 17 7 0 10 -262144
-1 -1;
#X msg 104 163 s;
#X msg 128 161 s;
#X msg 104 185 1;
#X msg 238 173 0;
#X msg 140 175 0;
#X obj 31 23 inlet;
#X obj 113 94 sel 121;
#X obj 31 110 + 8;
#X obj 413 101 delwrite~ vib9 50;
#X obj 361 296 dac~;
#X floatatom 361 162 5 0 0 0 - - -, f 5;
#X obj 357 189 osc~ 2;
#X obj 362 219 *~ 1;
#X floatatom 420 194 5 0 0 0 - - -, f 5;
#X obj 427 131 r vibfreq;
#X obj 457 167 r vibpitch;
#X obj 361 256 vd~ vib9;
#X connect 0 0 1 0;
#X connect 1 0 34 0;
#X connect 2 0 11 0;
#X connect 3 0 33 0;
#X connect 4 0 19 1;
#X connect 5 0 6 0;
#X connect 6 0 7 0;
#X connect 7 0 8 1;
#X connect 8 0 35 0;
#X connect 9 0 8 0;
#X connect 11 0 9 0;
#X connect 11 0 10 0;
#X connect 12 0 14 0;
#X connect 13 0 18 0;
#X connect 14 0 17 0;
#X connect 14 0 13 0;
#X connect 15 0 14 1;
#X connect 16 0 15 0;
#X connect 17 0 14 1;
#X connect 18 0 24 0;
#X connect 19 0 5 0;
#X connect 20 1 3 0;
#X connect 21 0 20 0;
#X connect 22 0 23 0;
#X connect 23 0 12 0;
#X connect 24 0 19 0;
#X connect 25 0 27 0;
#X connect 26 0 28 0;
#X connect 27 0 29 0;
#X connect 28 0 31 0;
#X connect 29 0 24 1;
#X connect 30 0 18 0;
#X connect 31 0 24 1;
#X connect 31 0 30 0;
#X connect 32 0 0 0;
#X connect 33 0 25 0;
#X connect 33 1 26 0;
#X connect 34 0 2 0;
#X connect 37 0 38 0;
#X connect 38 0 39 0;
#X connect 39 0 43 0;
#X connect 40 0 39 1;
#X connect 41 0 37 0;
#X connect 42 0 40 0;
#X connect 43 0 36 0;
#X connect 43 0 36 1;
#X restore 112 325 pd key9;
#N canvas 464 112 609 436 key7 0;
#X obj 31 55 nbx 5 14 -1e+37 1e+37 0 0 empty empty empty 0 -8 0 10
-262144 -1 -1 0 256;
#X obj 31 83 * 12;
#X obj 31 138 nbx 5 14 -1e+37 1e+37 0 0 empty empty empty 0 -8 0 10
-262144 -1 -1 0 256;
#X floatatom 113 78 3 0 0 0 - - -, f 3;
#X floatatom 301 233 5 0 0 0 volume vol -, f 5;
#X obj 214 243 / 100;
#X obj 152 279 pack 0 50;
#X obj 88 288 line~;
#X obj 53 333 *~;
#X obj 37 230 osc~;
#X floatatom 44 183 5 0 0 0 - - -, f 5;
#X obj 44 161 mtof;
#X obj 161 160 bng 15 250 50 0 empty empty empty 17 7 0 10 -262144
-1 -1;
#X obj 191 173 mod 2;
#X obj 182 145 f;
#X msg 210 113 0;
#X obj 212 79 loadbang;
#X obj 229 147 + 1;
#X floatatom 197 196 5 0 0 0 - - -, f 5;
#X obj 197 215 *;
#X obj 116 56 t b a;
#X obj 137 17 key;
#X obj 180 51 keyname;
#X obj 163 82 t b a;
#X obj 249 201 *;
#X obj 115 132 bng 15 250 50 0 F$ empty empty 17 7 0 10 -262144 -1
-1;
#X obj 142 136 bng 15 250 50 0 empty empty empty 17 7 0 10 -262144
-1 -1;
#X msg 104 166 s;
#X msg 128 164 s;
#X msg 104 188 1;
#X msg 238 176 0;
#X msg 140 178 0;
#X obj 31 113 + 6;
#X obj 113 97 sel 116;
#X obj 31 26 inlet;
#X obj 413 92 delwrite~ vib7 50;
#X obj 361 296 dac~;
#X floatatom 361 162 5 0 0 0 - - -, f 5;
#X obj 357 189 osc~ 2;
#X obj 362 219 *~ 1;
#X floatatom 420 194 5 0 0 0 - - -, f 5;
#X obj 427 131 r vibfreq;
#X obj 457 167 r vibpitch;
#X obj 361 256 vd~ vib7;
#X connect 0 0 1 0;
#X connect 1 0 32 0;
#X connect 2 0 11 0;
#X connect 3 0 33 0;
#X connect 4 0 19 1;
#X connect 5 0 6 0;
#X connect 6 0 7 0;
#X connect 7 0 8 1;
#X connect 8 0 35 0;
#X connect 9 0 8 0;
#X connect 11 0 9 0;
#X connect 11 0 10 0;
#X connect 12 0 14 0;
#X connect 13 0 18 0;
#X connect 14 0 17 0;
#X connect 14 0 13 0;
#X connect 15 0 14 1;
#X connect 16 0 15 0;
#X connect 17 0 14 1;
#X connect 18 0 24 0;
#X connect 19 0 5 0;
#X connect 20 1 3 0;
#X connect 21 0 20 0;
#X connect 22 0 23 0;
#X connect 23 0 12 0;
#X connect 24 0 19 0;
#X connect 25 0 27 0;
#X connect 26 0 28 0;
#X connect 27 0 29 0;
#X connect 28 0 31 0;
#X connect 29 0 24 1;
#X connect 30 0 18 0;
#X connect 31 0 24 1;
#X connect 31 0 30 0;
#X connect 32 0 2 0;
#X connect 33 0 25 0;
#X connect 33 1 26 0;
#X connect 34 0 0 0;
#X connect 37 0 38 0;
#X connect 38 0 39 0;
#X connect 39 0 43 0;
#X connect 40 0 39 1;
#X connect 41 0 37 0;
#X connect 42 0 40 0;
#X connect 43 0 36 0;
#X connect 43 0 36 1;
#X restore 114 300 pd key7;
#X obj 80 115 r octave;
#X floatatom 446 7 5 0 0 0 octave - octave, f 5;
#N canvas 0 23 646 543 key10 0;
#X obj 31 52 nbx 5 14 -1e+37 1e+37 0 0 empty empty empty 0 -8 0 10
-262144 -1 -1 0 256;
#X obj 31 80 * 12;
#X obj 31 135 nbx 5 14 -1e+37 1e+37 0 0 empty empty empty 0 -8 0 10
-262144 -1 -1 0 256;
#X floatatom 113 75 3 0 0 0 - - -, f 3;
#X floatatom 301 230 5 0 0 0 volume vol -, f 5;
#X obj 214 240 / 100;
#X obj 152 276 pack 0 50;
#X obj 88 285 line~;
#X obj 53 330 *~;
#X obj 37 227 osc~;
#X floatatom 44 180 5 0 0 0 - - -, f 5;
#X obj 44 158 mtof;
#X obj 161 157 bng 15 250 50 0 empty empty empty 17 7 0 10 -262144
-1 -1;
#X obj 191 170 mod 2;
#X obj 182 142 f;
#X msg 210 110 0;
#X obj 212 76 loadbang;
#X obj 229 144 + 1;
#X floatatom 197 193 5 0 0 0 - - -, f 5;
#X obj 197 212 *;
#X obj 116 53 t b a;
#X obj 137 14 key;
#X obj 180 48 keyname;
#X obj 163 79 t b a;
#X obj 249 198 *;
#X obj 115 129 bng 15 250 50 0 A empty empty 17 7 0 10 -262144 -1 -1
;
#X obj 142 133 bng 15 250 50 0 empty empty empty 17 7 0 10 -262144
-1 -1;
#X msg 104 163 s;
#X msg 128 161 s;
#X msg 104 185 1;
#X msg 238 173 0;
#X msg 140 175 0;
#X obj 31 23 inlet;
#X obj 112 94 sel 104;
#X obj 30 111 + 9;
#X obj 361 296 dac~;
#X floatatom 361 162 5 0 0 0 - - -, f 5;
#X obj 357 189 osc~ 2;
#X obj 362 219 *~ 1;
#X floatatom 420 201 5 0 0 0 - vibpitch -, f 5;
#X floatatom 376 137 5 0 0 0 - vibfreq -, f 5;
#X obj 413 101 delwrite~ vib10 50;
#X obj 361 256 vd~ vib10;
#X connect 0 0 1 0;
#X connect 1 0 34 0;
#X connect 2 0 11 0;
#X connect 3 0 33 0;
#X connect 4 0 19 1;
#X connect 5 0 6 0;
#X connect 6 0 7 0;
#X connect 7 0 8 1;
#X connect 8 0 41 0;
#X connect 9 0 8 0;
#X connect 11 0 9 0;
#X connect 11 0 10 0;
#X connect 12 0 14 0;
#X connect 13 0 18 0;
#X connect 14 0 17 0;
#X connect 14 0 13 0;
#X connect 15 0 14 1;
#X connect 16 0 15 0;
#X connect 17 0 14 1;
#X connect 18 0 24 0;
#X connect 19 0 5 0;
#X connect 20 1 3 0;
#X connect 21 0 20 0;
#X connect 22 0 23 0;
#X connect 23 0 12 0;
#X connect 24 0 19 0;
#X connect 25 0 27 0;
#X connect 26 0 28 0;
#X connect 27 0 29 0;
#X connect 28 0 31 0;
#X connect 29 0 24 1;
#X connect 30 0 18 0;
#X connect 31 0 24 1;
#X connect 31 0 30 0;
#X connect 32 0 0 0;
#X connect 33 0 25 0;
#X connect 33 1 26 0;
#X connect 34 0 2 0;
#X connect 36 0 37 0;
#X connect 37 0 38 0;
#X connect 38 0 42 0;
#X connect 39 0 38 1;
#X connect 40 0 36 0;
#X connect 42 0 35 0;
#X connect 42 0 35 1;
#X restore 112 347 pd key10;
#N canvas 0 22 518 490 key11 0;
#X obj 31 52 nbx 5 14 -1e+37 1e+37 0 0 empty empty empty 0 -8 0 10
-262144 -1 -1 0 256;
#X obj 31 80 * 12;
#X obj 31 135 nbx 5 14 -1e+37 1e+37 0 0 empty empty empty 0 -8 0 10
-262144 -1 -1 0 256;
#X floatatom 113 75 3 0 0 0 - - -, f 3;
#X floatatom 301 230 5 0 0 0 volume vol -, f 5;
#X obj 214 240 / 100;
#X obj 152 276 pack 0 50;
#X obj 88 285 line~;
#X obj 53 330 *~;
#X obj 37 227 osc~;
#X floatatom 44 180 5 0 0 0 - - -, f 5;
#X obj 44 158 mtof;
#X obj 161 157 bng 15 250 50 0 empty empty empty 17 7 0 10 -262144
-1 -1;
#X obj 191 170 mod 2;
#X obj 182 142 f;
#X msg 210 110 0;
#X obj 212 76 loadbang;
#X obj 229 144 + 1;
#X floatatom 197 193 5 0 0 0 - - -, f 5;
#X obj 197 212 *;
#X obj 116 53 t b a;
#X obj 137 14 key;
#X obj 180 48 keyname;
#X obj 163 79 t b a;
#X obj 249 198 *;
#X obj 115 129 bng 15 250 50 0 Bb empty empty 17 7 0 10 -262144 -1
-1;
#X obj 142 133 bng 15 250 50 0 empty empty empty 17 7 0 10 -262144
-1 -1;
#X msg 104 163 s;
#X msg 128 161 s;
#X msg 104 185 1;
#X msg 238 173 0;
#X msg 140 175 0;
#X obj 31 23 inlet;
#X obj 113 94 sel 117;
#X obj 31 110 + 10;
#X obj 361 296 dac~;
#X floatatom 361 162 5 0 0 0 - - -, f 5;
#X obj 357 189 osc~ 2;
#X obj 362 219 *~ 1;
#X floatatom 420 201 5 0 0 0 - vibpitch -, f 5;
#X floatatom 376 137 5 0 0 0 - vibfreq -, f 5;
#X obj 413 101 delwrite~ vib11 50;
#X obj 361 256 vd~ vib11;
#X connect 0 0 1 0;
#X connect 1 0 34 0;
#X connect 2 0 11 0;
#X connect 3 0 33 0;
#X connect 4 0 19 1;
#X connect 5 0 6 0;
#X connect 6 0 7 0;
#X connect 7 0 8 1;
#X connect 8 0 41 0;
#X connect 9 0 8 0;
#X connect 11 0 9 0;
#X connect 11 0 10 0;
#X connect 12 0 14 0;
#X connect 13 0 18 0;
#X connect 14 0 17 0;
#X connect 14 0 13 0;
#X connect 15 0 14 1;
#X connect 16 0 15 0;
#X connect 17 0 14 1;
#X connect 18 0 24 0;
#X connect 19 0 5 0;
#X connect 20 1 3 0;
#X connect 21 0 20 0;
#X connect 22 0 23 0;
#X connect 23 0 12 0;
#X connect 24 0 19 0;
#X connect 25 0 27 0;
#X connect 26 0 28 0;
#X connect 27 0 29 0;
#X connect 28 0 31 0;
#X connect 29 0 24 1;
#X connect 30 0 18 0;
#X connect 31 0 24 1;
#X connect 31 0 30 0;
#X connect 32 0 0 0;
#X connect 33 0 25 0;
#X connect 33 1 26 0;
#X connect 34 0 2 0;
#X connect 36 0 37 0;
#X connect 37 0 38 0;
#X connect 38 0 42 0;
#X connect 39 0 38 1;
#X connect 40 0 36 0;
#X connect 42 0 35 0;
#X connect 42 0 35 1;
#X restore 112 369 pd key11;
#N canvas 0 23 636 533 key12 0;
#X obj 31 52 nbx 5 14 -1e+37 1e+37 0 0 empty empty empty 0 -8 0 10
-262144 -1 -1 0 256;
#X obj 31 80 * 12;
#X obj 31 135 nbx 5 14 -1e+37 1e+37 0 0 empty empty empty 0 -8 0 10
-262144 -1 -1 0 256;
#X floatatom 113 75 3 0 0 0 - - -, f 3;
#X floatatom 301 230 5 0 0 0 volume vol -, f 5;
#X obj 214 240 / 100;
#X obj 152 276 pack 0 50;
#X obj 88 285 line~;
#X obj 53 330 *~;
#X obj 37 227 osc~;
#X floatatom 44 180 5 0 0 0 - - -, f 5;
#X obj 44 158 mtof;
#X obj 161 157 bng 15 250 50 0 empty empty empty 17 7 0 10 -262144
-1 -1;
#X obj 191 170 mod 2;
#X obj 182 142 f;
#X msg 210 110 0;
#X obj 212 76 loadbang;
#X obj 229 144 + 1;
#X floatatom 197 193 5 0 0 0 - - -, f 5;
#X obj 197 212 *;
#X obj 116 53 t b a;
#X obj 137 14 key;
#X obj 180 48 keyname;
#X obj 163 79 t b a;
#X obj 249 198 *;
#X obj 115 129 bng 15 250 50 0 B empty empty 17 7 0 10 -262144 -1 -1
;
#X obj 142 133 bng 15 250 50 0 empty empty empty 17 7 0 10 -262144
-1 -1;
#X msg 104 163 s;
#X msg 128 161 s;
#X msg 104 185 1;
#X msg 238 173 0;
#X msg 140 175 0;
#X obj 31 23 inlet;
#X obj 113 94 sel 106;
#X obj 31 110 + 11;
#X obj 361 296 dac~;
#X floatatom 361 162 5 0 0 0 - - -, f 5;
#X obj 357 189 osc~ 2;
#X obj 362 219 *~ 1;
#X floatatom 420 201 5 0 0 0 - vibpitch -, f 5;
#X floatatom 376 137 5 0 0 0 - vibfreq -, f 5;
#X obj 413 101 delwrite~ vib12 50;
#X obj 361 256 vd~ vib12;
#X connect 0 0 1 0;
#X connect 1 0 34 0;
#X connect 2 0 11 0;
#X connect 3 0 33 0;
#X connect 4 0 19 1;
#X connect 5 0 6 0;
#X connect 6 0 7 0;
#X connect 7 0 8 1;
#X connect 8 0 41 0;
#X connect 9 0 8 0;
#X connect 11 0 9 0;
#X connect 11 0 10 0;
#X connect 12 0 14 0;
#X connect 13 0 18 0;
#X connect 14 0 17 0;
#X connect 14 0 13 0;
#X connect 15 0 14 1;
#X connect 16 0 15 0;
#X connect 17 0 14 1;
#X connect 18 0 24 0;
#X connect 19 0 5 0;
#X connect 20 1 3 0;
#X connect 21 0 20 0;
#X connect 22 0 23 0;
#X connect 23 0 12 0;
#X connect 24 0 19 0;
#X connect 25 0 27 0;
#X connect 26 0 28 0;
#X connect 27 0 29 0;
#X connect 28 0 31 0;
#X connect 29 0 24 1;
#X connect 30 0 18 0;
#X connect 31 0 24 1;
#X connect 31 0 30 0;
#X connect 32 0 0 0;
#X connect 33 0 25 0;
#X connect 33 1 26 0;
#X connect 34 0 2 0;
#X connect 36 0 37 0;
#X connect 37 0 38 0;
#X connect 38 0 42 0;
#X connect 39 0 38 1;
#X connect 40 0 36 0;
#X connect 42 0 35 0;
#X connect 42 0 35 1;
#X restore 112 391 pd key12;
#N canvas 0 22 580 573 key13 0;
#X obj 31 52 nbx 5 14 -1e+37 1e+37 0 0 empty empty empty 0 -8 0 10
-262144 -1 -1 0 256;
#X obj 31 80 * 12;
#X obj 31 135 nbx 5 14 -1e+37 1e+37 0 0 empty empty empty 0 -8 0 10
-262144 -1 -1 0 256;
#X floatatom 113 75 3 0 0 0 - - -, f 3;
#X floatatom 301 230 5 0 0 0 volume vol -, f 5;
#X obj 214 240 / 100;
#X obj 152 276 pack 0 50;
#X obj 88 285 line~;
#X obj 53 330 *~;
#X obj 37 227 osc~;
#X floatatom 44 180 5 0 0 0 - - -, f 5;
#X obj 44 158 mtof;
#X obj 161 157 bng 15 250 50 0 empty empty empty 17 7 0 10 -262144
-1 -1;
#X obj 191 170 mod 2;
#X obj 182 142 f;
#X msg 210 110 0;
#X obj 212 76 loadbang;
#X obj 229 144 + 1;
#X floatatom 197 193 5 0 0 0 - - -, f 5;
#X obj 197 212 *;
#X obj 116 53 t b a;
#X obj 137 14 key;
#X obj 180 48 keyname;
#X obj 163 79 t b a;
#X obj 249 198 *;
#X obj 115 129 bng 15 250 50 0 Ch empty empty 17 7 0 10 -262144 -1
-1;
#X obj 142 133 bng 15 250 50 0 empty empty empty 17 7 0 10 -262144
-1 -1;
#X msg 104 163 s;
#X msg 128 161 s;
#X msg 104 185 1;
#X msg 238 173 0;
#X msg 140 175 0;
#X obj 31 23 inlet;
#X obj 31 110 + 12;
#X obj 113 94 sel 107;
#X obj 361 296 dac~;
#X floatatom 361 162 5 0 0 0 - - -, f 5;
#X obj 357 189 osc~ 2;
#X obj 362 219 *~ 1;
#X floatatom 420 201 5 0 0 0 - vibpitch -, f 5;
#X floatatom 376 137 5 0 0 0 - vibfreq -, f 5;
#X obj 413 101 delwrite~ vib13 50;
#X obj 361 256 vd~ vib13;
#X connect 0 0 1 0;
#X connect 1 0 33 0;
#X connect 2 0 11 0;
#X connect 3 0 34 0;
#X connect 4 0 19 1;
#X connect 5 0 6 0;
#X connect 6 0 7 0;
#X connect 7 0 8 1;
#X connect 8 0 41 0;
#X connect 9 0 8 0;
#X connect 11 0 9 0;
#X connect 11 0 10 0;
#X connect 12 0 14 0;
#X connect 13 0 18 0;
#X connect 14 0 17 0;
#X connect 14 0 13 0;
#X connect 15 0 14 1;
#X connect 16 0 15 0;
#X connect 17 0 14 1;
#X connect 18 0 24 0;
#X connect 19 0 5 0;
#X connect 20 1 3 0;
#X connect 21 0 20 0;
#X connect 22 0 23 0;
#X connect 23 0 12 0;
#X connect 24 0 19 0;
#X connect 25 0 27 0;
#X connect 26 0 28 0;
#X connect 27 0 29 0;
#X connect 28 0 31 0;
#X connect 29 0 24 1;
#X connect 30 0 18 0;
#X connect 31 0 24 1;
#X connect 31 0 30 0;
#X connect 32 0 0 0;
#X connect 33 0 2 0;
#X connect 34 0 25 0;
#X connect 34 1 26 0;
#X connect 36 0 37 0;
#X connect 37 0 38 0;
#X connect 38 0 42 0;
#X connect 39 0 38 1;
#X connect 40 0 36 0;
#X connect 42 0 35 0;
#X connect 42 0 35 1;
#X restore 112 413 pd key13;
#X floatatom 259 5 5 0 0 0 pitch_of_metro - pitch, f 5;
#X floatatom 446 27 5 0 0 0 vibrato_freq - vibfreq, f 5;
#X floatatom 448 80 5 0 0 0 vibrato_range - vibpitch, f 5;
#X obj 186 155 bng 15 250 50 0 empty C C 17 7 0 10 -262144 -1 -1;
#X obj 223 155 bng 15 250 50 0 empty C$ C$ 17 7 0 10 -262144 -1 -1
;
#X obj 261 155 bng 15 250 50 0 empty D D 17 7 0 10 -262144 -1 -1;
#X obj 295 155 bng 15 250 50 0 empty D$ D$ 17 7 0 10 -262144 -1 -1
;
#X obj 332 155 bng 15 250 50 0 empty E E 17 7 0 10 -262144 -1 -1;
#X obj 361 155 bng 15 250 50 0 empty F F 17 7 0 10 -262144 -1 -1;
#X obj 389 155 bng 15 250 50 0 empty F$ F$ 17 7 0 10 -262144 -1 -1
;
#X obj 422 155 bng 15 250 50 0 empty G G 17 7 0 10 -262144 -1 -1;
#X obj 450 155 bng 15 250 50 0 empty G$ G$ 17 7 0 10 -262144 -1 -1
;
#X obj 481 155 bng 15 250 50 0 empty A A 17 7 0 10 -262144 -1 -1;
#X obj 509 155 bng 15 250 50 0 empty Bb A$ 17 7 0 10 -262144 -1 -1
;
#X obj 540 155 bng 15 250 50 0 empty B B 17 7 0 10 -262144 -1 -1;
#X obj 566 155 bng 15 250 50 0 empty Ch C 17 7 0 10 -262144 -1 -1;
#X text 186 283 a=C \, w=c# \, s=D \, e=D# \, d=E \, f=F \, t=F# \,
g=G \, y=G# \, h=A \, u=A# \, j=B \, k=C;
#X text 186 206 set octave and volume at the right side control first.
vibrato options are optional.;
#X text 186 238 controls on the left are for a metronome. You can set
the volume \, tempo and pitch for metronome. Please set control values
before pressing the MetroOn/off;
#X text 186 315 when pointer is an arrow: keep playing. To stop sound
\, just press any key other than the keys above when pointer is a hand.
only play when pressing the key. Hit control E (for mac) to change
to edit mode so the key will only play while pressing the key. Exit
the edit mode so the key will keep playing until pressing the next
key;
#X connect 15 0 7 0;
#X connect 15 0 5 0;
#X connect 15 0 9 0;
#X connect 15 0 10 0;
#X connect 15 0 11 0;
#X connect 15 0 14 0;
#X connect 15 0 12 0;
#X connect 15 0 13 0;
#X connect 15 0 8 0;
#X connect 15 0 17 0;
#X connect 15 0 18 0;
#X connect 15 0 19 0;
#X connect 15 0 20 0;
