#N canvas 568 104 645 476 10;
#X obj 100 192 int;
#X obj 155 176 + 1;
#X floatatom 191 235 0 0 0 0 - - -;
#X floatatom 176 83 0 0 0 0 - - -;
#X obj 191 207 mod 16;
#X obj 190 264 s beat;
#X obj 39 26 inlet;
#X obj 316 182 int;
#X obj 163 25 inlet;
#X obj 230 24 inlet;
#X msg 233 83 0;
#X obj 217 354 outlet;
#X obj 131 350 spigot;
#X obj 69 289 select 15;
#X obj 74 150 metro 100;
#X text 278 27 start from the 1st beat again;
#X text 24 4 start beat;
#X text 145 5 tempo;
#X connect 0 0 1 0;
#X connect 1 0 4 0;
#X connect 2 0 0 1;
#X connect 2 0 5 0;
#X connect 2 0 13 0;
#X connect 3 0 14 1;
#X connect 4 0 2 0;
#X connect 6 0 14 0;
#X connect 7 0 11 0;
#X connect 8 0 3 0;
#X connect 9 0 10 0;
#X connect 10 0 4 0;
#X connect 10 0 7 0;
#X connect 13 0 12 0;
#X connect 14 0 0 0;
