#N canvas 350 89 450 300 10;
#X obj 87 62 delwrite~ vib 50;
#X floatatom 25 71 5 0 0 0 - - -, f 5;
#X obj 31 107 osc~ 2;
#X obj 31 129 *~ 1;
#X obj 31 151 +~ 2;
#X obj 31 173 vd~ vib;
#X floatatom 106 136 5 0 0 0 - - -, f 5;
#X obj 87 39 inlet~;
#X obj 31 195 outlet~;
#X connect 1 0 2 0;
#X connect 2 0 3 0;
#X connect 3 0 4 0;
#X connect 4 0 5 0;
#X connect 5 0 8 0;
#X connect 6 0 3 1;
#X connect 6 0 4 1;
#X connect 7 0 0 0;
