#N canvas 796 111 450 300 10;
#X obj 157 124 mtof;
#X obj 155 254 outlet~;
#X obj 157 96 f \$1;
#X obj 148 62 loadbang;
#X obj 167 171 osc~;
#X obj 268 49 receive index;
#X obj 325 140 receive evenodd;
#X obj 220 190 *~;
#X obj 229 229 +~;
#X obj 275 70 / 100;
#X obj 266 129 line~;
#X obj 286 97 pack 0 50;
#X obj 333 177 / 400;
#X obj 289 236 line~;
#X obj 309 204 pack 0 50;
#X floatatom 353 82 5 0 0 0 - - -, f 5;
#X floatatom 395 171 5 0 0 0 - - -, f 5;
#X obj 144 224 cos~;
#X connect 0 0 4 0;
#X connect 2 0 0 0;
#X connect 3 0 2 0;
#X connect 4 0 7 0;
#X connect 5 0 9 0;
#X connect 5 0 15 0;
#X connect 6 0 12 0;
#X connect 6 0 16 0;
#X connect 7 0 8 0;
#X connect 8 0 17 0;
#X connect 9 0 11 0;
#X connect 10 0 7 1;
#X connect 11 0 10 0;
#X connect 12 0 14 0;
#X connect 13 0 8 1;
#X connect 14 0 13 0;
#X connect 17 0 1 0;
