#N canvas 614 160 452 424 10;
#X floatatom 172 32 5 0 0 0 index - -, f 5;
#X floatatom 280 28 5 0 0 0 evenodd - -, f 5;
#X obj 124 390 dac~;
#X obj 291 315 line~;
#X obj 311 283 pack 0 50;
#X floatatom 67 44 5 0 0 0 amp - -, f 5;
#X obj 149 343 *~;
#X obj 137 307 hip~ 10;
#X obj 257 353 *~;
#X obj 267 103 send index;
#X obj 265 81 send evenodd;
#X floatatom 347 260 5 0 0 0 - - -, f 5;
#X obj 314 222 receive amp;
#X obj 277 127 send amp;
#X obj 139 130 clip 0 100;
#X obj 149 109 clip 0 100;
#X obj 162 77 clip 0 100;
#X obj 299 257 / 100;
#X text 27 6 input your choice of amp \, index and evenodd;
#X obj 112 169 abstraction 70;
#X obj 57 193 abstraction 60;
#X obj 151 211 abstraction 65;
#X obj 275 196 abstraction 67;
#X obj 211 168 abstraction 62;
#X connect 0 0 15 0;
#X connect 1 0 16 0;
#X connect 3 0 8 0;
#X connect 3 0 8 1;
#X connect 4 0 3 0;
#X connect 5 0 14 0;
#X connect 6 0 2 0;
#X connect 6 0 2 1;
#X connect 7 0 6 0;
#X connect 8 0 6 1;
#X connect 12 0 11 0;
#X connect 12 0 17 0;
#X connect 14 0 13 0;
#X connect 15 0 9 0;
#X connect 16 0 10 0;
#X connect 17 0 4 0;
#X connect 19 0 7 0;
#X connect 20 0 7 0;
#X connect 21 0 7 0;
#X connect 22 0 7 0;
#X connect 23 0 7 0;
